{
  "accessors": [
    {
      "bufferView": 0,
      "componentType": 5126,
      "count": 98,
      "type": "VEC3",
      "max": [
        20.0,
        120.0,
        20.0
      ],
      "min": [
        -20.0,
        100.0,
        -20.0
      ]
    },
    {
      "bufferView": 1,
      "componentType": 5125,
      "count": 276,
      "type": "SCALAR",
      "max": [
        97.0
      ],
      "min": [
        0.0
      ]
    },
    {
      "bufferView": 2,
      "componentType": 5126,
      "count": 98,
      "type": "VEC3",
      "max": [
        1.0,
        1.0,
        1.0
      ],
      "min": [
        -1.0,
        -1.0,
        -1.0
      ]
    },
    {
      "bufferView": 3,
      "componentType": 5126,
      "count": 98,
      "type": "VEC2",
      "max": [
        0.4020231,
        0.0
      ],
      "min": [
        0.0,
        -0.998535156
      ]
    },
    {
      "bufferView": 4,
      "componentType": 5126,
      "count": 98,
      "type": "VEC3",
      "max": [
        20.0,
        100.0,
        20.0
      ],
      "min": [
        -20.0,
        80.0,
        -20.0
      ]
    },
    {
      "bufferView": 5,
      "componentType": 5125,
      "count": 276,
      "type": "SCALAR",
      "max": [
        97.0
      ],
      "min": [
        0.0
      ]
    },
    {
      "bufferView": 6,
      "componentType": 5126,
      "count": 98,
      "type": "VEC3",
      "max": [
        1.0,
        1.0,
        1.0
      ],
      "min": [
        -1.0,
        -1.0,
        -1.0
      ]
    },
    {
      "bufferView": 7,
      "componentType": 5126,
      "count": 98,
      "type": "VEC2",
      "max": [
        0.4020231,
        0.0
      ],
      "min": [
        0.0,
        -0.998535156
      ]
    },
    {
      "bufferView": 8,
      "componentType": 5126,
      "count": 98,
      "type": "VEC3",
      "max": [
        20.0,
        80.0,
        20.0
      ],
      "min": [
        -20.0,
        60.0,
        -20.0
      ]
    },
    {
      "bufferView": 9,
      "componentType": 5125,
      "count": 276,
      "type": "SCALAR",
      "max": [
        97.0
      ],
      "min": [
        0.0
      ]
    },
    {
      "bufferView": 10,
      "componentType": 5126,
      "count": 98,
      "type": "VEC3",
      "max": [
        1.0,
        1.0,
        1.0
      ],
      "min": [
        -1.0,
        -1.0,
        -1.0
      ]
    },
    {
      "bufferView": 11,
      "componentType": 5126,
      "count": 98,
      "type": "VEC2",
      "max": [
        0.4020231,
        0.0
      ],
      "min": [
        0.0,
        -0.998535156
      ]
    },
    {
      "bufferView": 12,
      "componentType": 5126,
      "count": 98,
      "type": "VEC3",
      "max": [
        20.0,
        60.0,
        20.0
      ],
      "min": [
        -20.0,
        40.0,
        -20.0
      ]
    },
    {
      "bufferView": 13,
      "componentType": 5125,
      "count": 276,
      "type": "SCALAR",
      "max": [
        97.0
      ],
      "min": [
        0.0
      ]
    },
    {
      "bufferView": 14,
      "componentType": 5126,
      "count": 98,
      "type": "VEC3",
      "max": [
        1.0,
        1.0,
        1.0
      ],
      "min": [
        -1.0,
        -1.0,
        -1.0
      ]
    },
    {
      "bufferView": 15,
      "componentType": 5126,
      "count": 98,
      "type": "VEC2",
      "max": [
        0.4020231,
        0.0
      ],
      "min": [
        0.0,
        -0.998535156
      ]
    },
    {
      "bufferView": 16,
      "componentType": 5126,
      "count": 98,
      "type": "VEC3",
      "max": [
        20.0,
        40.0,
        20.0
      ],
      "min": [
        -20.0,
        20.0,
        -20.0
      ]
    },
    {
      "bufferView": 17,
      "componentType": 5125,
      "count": 276,
      "type": "SCALAR",
      "max": [
        97.0
      ],
      "min": [
        0.0
      ]
    },
    {
      "bufferView": 18,
      "componentType": 5126,
      "count": 98,
      "type": "VEC3",
      "max": [
        1.0,
        1.0,
        1.0
      ],
      "min": [
        -1.0,
        -1.0,
        -1.0
      ]
    },
    {
      "bufferView": 19,
      "componentType": 5126,
      "count": 98,
      "type": "VEC2",
      "max": [
        0.4020231,
        0.0
      ],
      "min": [
        0.0,
        -0.998535156
      ]
    },
    {
      "bufferView": 20,
      "componentType": 5126,
      "count": 98,
      "type": "VEC3",
      "max": [
        20.0,
        20.0,
        20.0
      ],
      "min": [
        -20.0,
        0.0,
        -20.0
      ]
    },
    {
      "bufferView": 21,
      "componentType": 5125,
      "count": 276,
      "type": "SCALAR",
      "max": [
        97.0
      ],
      "min": [
        0.0
      ]
    },
    {
      "bufferView": 22,
      "componentType": 5126,
      "count": 98,
      "type": "VEC3",
      "max": [
        1.0,
        1.0,
        1.0
      ],
      "min": [
        -1.0,
        -1.0,
        -1.0
      ]
    },
    {
      "bufferView": 23,
      "componentType": 5126,
      "count": 98,
      "type": "VEC2",
      "max": [
        0.4020231,
        0.0
      ],
      "min": [
        0.0,
        -0.998535156
      ]
    }
  ],
  "asset": {
    "version": "2.0"
  },
  "buffers": [
    {
      "uri": "data:application/octet-stream;base64,",
      "byteLength": 1176
    },
    {
      "uri": "data:application/octet-stream;base64,",
      "byteLength": 1104
    },
    {
      "uri": "data:application/octet-stream;base64,",
      "byteLength": 1176
    },
    {
      "uri": "data:application/octet-stream;base64,",
      "byteLength": 784
    },
    {
      "uri": "data:application/octet-stream;base64,",
      "byteLength": 1176
    },
    {
      "uri": "data:application/octet-stream;base64,",
      "byteLength": 1104
    },
    {
      "uri": "data:application/octet-stream;base64,",
      "byteLength": 1176
    },
    {
      "uri": "data:application/octet-stream;base64,",
      "byteLength": 784
    },
    {
      "uri": "data:application/octet-stream;base64,",
      "byteLength": 1176
    },
    {
      "uri": "data:application/octet-stream;base64,",
      "byteLength": 1104
    },
    {
      "uri": "data:application/octet-stream;base64,",
      "byteLength": 1176
    },
    {
      "uri": "data:application/octet-stream;base64,",
      "byteLength": 784
    },
    {
      "uri": "data:application/octet-stream;base64,",
      "byteLength": 1176
    },
    {
      "uri": "data:application/octet-stream;base64,",
      "byteLength": 1104
    },
    {
      "uri": "data:application/octet-stream;base64,",
      "byteLength": 1176
    },
    {
      "uri": "data:application/octet-stream;base64,",
      "byteLength": 784
    },
    {
      "uri": "data:application/octet-stream;base64,",
      "byteLength": 1176
    },
    {
      "uri": "data:application/octet-stream;base64,",
      "byteLength": 1104
    },
    {
      "uri": "data:application/octet-stream;base64,",
      "byteLength": 1176
    },
    {
      "uri": "data:application/octet-stream;base64,",
      "byteLength": 784
    },
    {
      "uri": "data:application/octet-stream;base64,",
      "byteLength": 1176
    },
    {
      "uri": "data:application/octet-stream;base64,",
      "byteLength": 1104
    },
    {
      "uri": "data:application/octet-stream;base64,",
      "byteLength": 1176
    },
    {
      "uri": "data:application/octet-stream;base64,",
      "byteLength": 784
    }
  ],
  "bufferViews": [
    {
      "buffer": 0,
      "byteLength": 1176,
      "target": 34962
    },
    {
      "buffer": 1,
      "byteLength": 1104,
      "target": 34963
    },
    {
      "buffer": 2,
      "byteLength": 1176,
      "target": 34962
    },
    {
      "buffer": 3,
      "byteLength": 784,
      "target": 34962
    },
    {
      "buffer": 4,
      "byteLength": 1176,
      "target": 34962
    },
    {
      "buffer": 5,
      "byteLength": 1104,
      "target": 34963
    },
    {
      "buffer": 6,
      "byteLength": 1176,
      "target": 34962
    },
    {
      "buffer": 7,
      "byteLength": 784,
      "target": 34962
    },
    {
      "buffer": 8,
      "byteLength": 1176,
      "target": 34962
    },
    {
      "buffer": 9,
      "byteLength": 1104,
      "target": 34963
    },
    {
      "buffer": 10,
      "byteLength": 1176,
      "target": 34962
    },
    {
      "buffer": 11,
      "byteLength": 784,
      "target": 34962
    },
    {
      "buffer": 12,
      "byteLength": 1176,
      "target": 34962
    },
    {
      "buffer": 13,
      "byteLength": 1104,
      "target": 34963
    },
    {
      "buffer": 14,
      "byteLength": 1176,
      "target": 34962
    },
    {
      "buffer": 15,
      "byteLength": 784,
      "target": 34962
    },
    {
      "buffer": 16,
      "byteLength": 1176,
      "target": 34962
    },
    {
      "buffer": 17,
      "byteLength": 1104,
      "target": 34963
    },
    {
      "buffer": 18,
      "byteLength": 1176,
      "target": 34962
    },
    {
      "buffer": 19,
      "byteLength": 784,
      "target": 34962
    },
    {
      "buffer": 20,
      "byteLength": 1176,
      "target": 34962
    },
    {
      "buffer": 21,
      "byteLength": 1104,
      "target": 34963
    },
    {
      "buffer": 22,
      "byteLength": 1176,
      "target": 34962
    },
    {
      "buffer": 23,
      "byteLength": 784,
      "target": 34962
    }
  ],
  "materials": [
    {}
  ],
  "meshes": [
    {
      "primitives": [
        {
          "attributes": {
            "POSITION": 0,
            "NORMAL": 2,
            "TEXCOORD_0": 3
          },
          "indices": 1,
          "material": 0
        }
      ]
    },
    {
      "primitives": [
        {
          "attributes": {
            "POSITION": 4,
            "NORMAL": 6,
            "TEXCOORD_0": 7
          },
          "indices": 5,
          "material": 0
        }
      ]
    },
    {
      "primitives": [
        {
          "attributes": {
            "POSITION": 8,
            "NORMAL": 10,
            "TEXCOORD_0": 11
          },
          "indices": 9,
          "material": 0
        }
      ]
    },
    {
      "primitives": [
        {
          "attributes": {
            "POSITION": 12,
            "NORMAL": 14,
            "TEXCOORD_0": 15
          },
          "indices": 13,
          "material": 0
        }
      ]
    },
    {
      "primitives": [
        {
          "attributes": {
            "POSITION": 16,
            "NORMAL": 18,
            "TEXCOORD_0": 19
          },
          "indices": 17,
          "material": 0
        }
      ]
    },
    {
      "primitives": [
        {
          "attributes": {
            "POSITION": 20,
            "NORMAL": 22,
            "TEXCOORD_0": 23
          },
          "indices": 21,
          "material": 0
        }
      ]
    }
  ],
  "nodes": [
    {
      "mesh": 0,
      "name": "meshID-0"
    },
    {
      "mesh": 1,
      "name": "meshID-1"
    },
    {
      "mesh": 2,
      "name": "meshID-2"
    },
    {
      "mesh": 3,
      "name": "meshID-3"
    },
    {
      "mesh": 4,
      "name": "meshID-4"
    },
    {
      "mesh": 5,
      "name": "meshID-5"
    }
  ],
  "samplers": [
    {
      "magFilter": 9729,
      "minFilter": 9729
    }
  ],
  "scene": 0,
  "scenes": [
    {
      "nodes": [
        0,
        1,
        2,
        3,
        4,
        5
      ],
      "extensions": {}
    }
  ],
  "extensions": {}
}